<?xml version="1.0" encoding="UTF-8" standalone="no"?>
<!DOCTYPE svg PUBLIC "-//W3C//DTD SVG 1.1//EN"
 "http://www.w3.org/Graphics/SVG/1.1/DTD/svg11.dtd">
<!-- Generated by graphviz version 2.43.0 (0)
 -->
<!-- Title: architecture Pages: 1 -->
<svg width="554pt" height="514pt"
 viewBox="0.00 0.00 553.80 514.06" xmlns="http://www.w3.org/2000/svg" xmlns:xlink="http://www.w3.org/1999/xlink">
<g id="graph0" class="graph" transform="scale(1 1) rotate(0) translate(14.4 499.66)">
<title>architecture</title>
<text text-anchor="middle" x="262.5" y="-468.46" font-family="Helvetica,sans-Serif" font-size="16.00">Net Inspector &#45; Segmentation GUI Architecture</text>
<g id="clust1" class="cluster">
<title>cluster_ui</title>
<path fill="#e3f2fd" stroke="#1e88e5" d="M20,-178.26C20,-178.26 250.5,-178.26 250.5,-178.26 256.5,-178.26 262.5,-184.26 262.5,-190.26 262.5,-190.26 262.5,-309.26 262.5,-309.26 262.5,-315.26 256.5,-321.26 250.5,-321.26 250.5,-321.26 20,-321.26 20,-321.26 14,-321.26 8,-315.26 8,-309.26 8,-309.26 8,-190.26 8,-190.26 8,-184.26 14,-178.26 20,-178.26"/>
<text text-anchor="middle" x="135.25" y="-304.46" font-family="Helvetica,sans-Serif" font-size="16.00" fill="#0d47a1">GUI</text>
</g>
<g id="clust2" class="cluster">
<title>cluster_core</title>
<path fill="#e8f5e9" stroke="#43a047" d="M152,-27.26C152,-27.26 489.5,-27.26 489.5,-27.26 495.5,-27.26 501.5,-33.26 501.5,-39.26 501.5,-39.26 501.5,-158.26 501.5,-158.26 501.5,-164.26 495.5,-170.26 489.5,-170.26 489.5,-170.26 152,-170.26 152,-170.26 146,-170.26 140,-164.26 140,-158.26 140,-158.26 140,-39.26 140,-39.26 140,-33.26 146,-27.26 152,-27.26"/>
<text text-anchor="middle" x="320.75" y="-153.46" font-family="Helvetica,sans-Serif" font-size="16.00" fill="#1b5e20">Core</text>
</g>
<g id="clust3" class="cluster">
<title>cluster_io</title>
<path fill="#fff3e0" stroke="#fb8c00" d="M343,-178.26C343,-178.26 505,-178.26 505,-178.26 511,-178.26 517,-184.26 517,-190.26 517,-190.26 517,-439.26 517,-439.26 517,-445.26 511,-451.26 505,-451.26 505,-451.26 343,-451.26 343,-451.26 337,-451.26 331,-445.26 331,-439.26 331,-439.26 331,-190.26 331,-190.26 331,-184.26 337,-178.26 343,-178.26"/>
<text text-anchor="middle" x="424" y="-434.46" font-family="Helvetica,sans-Serif" font-size="16.00" fill="#e65100">I/O</text>
</g>
<!-- Controls -->
<g id="node1" class="node">
<title>Controls</title>
<path fill="#bbdefb" stroke="#37474f" d="M99,-287.26C99,-287.26 28,-287.26 28,-287.26 22,-287.26 16,-281.26 16,-275.26 16,-275.26 16,-263.26 16,-263.26 16,-257.26 22,-251.26 28,-251.26 28,-251.26 99,-251.26 99,-251.26 105,-251.26 111,-257.26 111,-263.26 111,-263.26 111,-275.26 111,-275.26 111,-281.26 105,-287.26 99,-287.26"/>
<text text-anchor="middle" x="63.5" y="-272.46" font-family="Helvetica,sans-Serif" font-size="11.00">Controls</text>
<text text-anchor="middle" x="63.5" y="-260.46" font-family="Helvetica,sans-Serif" font-size="11.00">(sliders, toggles)</text>
</g>
<!-- Segmenter -->
<g id="node4" class="node">
<title>Segmenter</title>
<path fill="#c8e6c9" stroke="#37474f" d="M248,-136.26C248,-136.26 160,-136.26 160,-136.26 154,-136.26 148,-130.26 148,-124.26 148,-124.26 148,-112.26 148,-112.26 148,-106.26 154,-100.26 160,-100.26 160,-100.26 248,-100.26 248,-100.26 254,-100.26 260,-106.26 260,-112.26 260,-112.26 260,-124.26 260,-124.26 260,-130.26 254,-136.26 248,-136.26"/>
<text text-anchor="middle" x="204" y="-121.46" font-family="Helvetica,sans-Serif" font-size="11.00">PyTorch Segmenter</text>
<text text-anchor="middle" x="204" y="-109.46" font-family="Helvetica,sans-Serif" font-size="11.00">(DeepLabV3)</text>
</g>
<!-- Controls&#45;&gt;Segmenter -->
<g id="edge2" class="edge">
<title>Controls&#45;&gt;Segmenter</title>
<path fill="none" stroke="#546e7a" stroke-width="1.4" d="M96.03,-251.14C101.48,-247.06 106.75,-242.4 111,-237.26 131.42,-212.57 120.8,-196.91 140,-171.26 148.3,-160.18 159.34,-149.89 169.86,-141.38"/>
<polygon fill="#546e7a" stroke="#546e7a" stroke-width="1.4" points="171.74,-143.47 176.31,-136.33 168.29,-139.06 171.74,-143.47"/>
</g>
<!-- NetMask -->
<g id="node5" class="node">
<title>NetMask</title>
<path fill="#c8e6c9" stroke="#37474f" d="M231,-71.26C231,-71.26 177,-71.26 177,-71.26 171,-71.26 165,-65.26 165,-59.26 165,-59.26 165,-47.26 165,-47.26 165,-41.26 171,-35.26 177,-35.26 177,-35.26 231,-35.26 231,-35.26 237,-35.26 243,-41.26 243,-47.26 243,-47.26 243,-59.26 243,-59.26 243,-65.26 237,-71.26 231,-71.26"/>
<text text-anchor="middle" x="204" y="-56.46" font-family="Helvetica,sans-Serif" font-size="11.00">Net Mask</text>
<text text-anchor="middle" x="204" y="-44.46" font-family="Helvetica,sans-Serif" font-size="11.00">(HSV green)</text>
</g>
<!-- Controls&#45;&gt;NetMask -->
<g id="edge1" class="edge">
<title>Controls&#45;&gt;NetMask</title>
<path fill="none" stroke="#546e7a" stroke-width="1.4" d="M97.94,-251.12C102.95,-247.14 107.57,-242.51 111,-237.26 148.39,-180.06 99.24,-141.11 140,-86.26 144.75,-79.87 151.11,-74.6 157.96,-70.3"/>
<polygon fill="#546e7a" stroke="#546e7a" stroke-width="1.4" points="159.37,-72.72 164.93,-66.31 156.6,-67.85 159.37,-72.72"/>
</g>
<!-- Panels -->
<g id="node2" class="node">
<title>Panels</title>
<path fill="#bbdefb" stroke="#37474f" d="M94.5,-222.26C94.5,-222.26 32.5,-222.26 32.5,-222.26 26.5,-222.26 20.5,-216.26 20.5,-210.26 20.5,-210.26 20.5,-198.26 20.5,-198.26 20.5,-192.26 26.5,-186.26 32.5,-186.26 32.5,-186.26 94.5,-186.26 94.5,-186.26 100.5,-186.26 106.5,-192.26 106.5,-198.26 106.5,-198.26 106.5,-210.26 106.5,-210.26 106.5,-216.26 100.5,-222.26 94.5,-222.26"/>
<text text-anchor="middle" x="63.5" y="-207.46" font-family="Helvetica,sans-Serif" font-size="11.00">Panels</text>
<text text-anchor="middle" x="63.5" y="-195.46" font-family="Helvetica,sans-Serif" font-size="11.00">(input / output)</text>
</g>
<!-- Status -->
<g id="node3" class="node">
<title>Status</title>
<path fill="#bbdefb" stroke="#37474f" d="M242.5,-222.26C242.5,-222.26 165.5,-222.26 165.5,-222.26 159.5,-222.26 153.5,-216.26 153.5,-210.26 153.5,-210.26 153.5,-198.26 153.5,-198.26 153.5,-192.26 159.5,-186.26 165.5,-186.26 165.5,-186.26 242.5,-186.26 242.5,-186.26 248.5,-186.26 254.5,-192.26 254.5,-198.26 254.5,-198.26 254.5,-210.26 254.5,-210.26 254.5,-216.26 248.5,-222.26 242.5,-222.26"/>
<text text-anchor="middle" x="204" y="-207.46" font-family="Helvetica,sans-Serif" font-size="11.00">Status</text>
<text text-anchor="middle" x="204" y="-195.46" font-family="Helvetica,sans-Serif" font-size="11.00">(seg FPS, debris)</text>
</g>
<!-- Panels&#45;&gt;Status -->
<g id="edge10" class="edge">
<title>Panels&#45;&gt;Status</title>
<path fill="none" stroke="#546e7a" stroke-width="1.4" d="M106.81,-204.26C118.81,-204.26 132.1,-204.26 144.87,-204.26"/>
<polygon fill="#546e7a" stroke="#546e7a" stroke-width="1.4" points="145.17,-207.06 153.17,-204.26 145.17,-201.46 145.17,-207.06"/>
</g>
<!-- Overlays -->
<g id="node6" class="node">
<title>Overlays</title>
<path fill="#c8e6c9" stroke="#37474f" d="M481.5,-103.26C481.5,-103.26 366.5,-103.26 366.5,-103.26 360.5,-103.26 354.5,-97.26 354.5,-91.26 354.5,-91.26 354.5,-79.26 354.5,-79.26 354.5,-73.26 360.5,-67.26 366.5,-67.26 366.5,-67.26 481.5,-67.26 481.5,-67.26 487.5,-67.26 493.5,-73.26 493.5,-79.26 493.5,-79.26 493.5,-91.26 493.5,-91.26 493.5,-97.26 487.5,-103.26 481.5,-103.26"/>
<text text-anchor="middle" x="424" y="-88.46" font-family="Helvetica,sans-Serif" font-size="11.00">Overlays</text>
<text text-anchor="middle" x="424" y="-76.46" font-family="Helvetica,sans-Serif" font-size="11.00">(seg + net + debris + fire)</text>
</g>
<!-- Segmenter&#45;&gt;Overlays -->
<g id="edge5" class="edge">
<title>Segmenter&#45;&gt;Overlays</title>
<path fill="none" stroke="#546e7a" stroke-width="1.4" d="M260.01,-109.93C286.18,-105.97 317.91,-101.17 346.39,-96.86"/>
<polygon fill="#546e7a" stroke="#546e7a" stroke-width="1.4" points="346.84,-99.62 354.33,-95.66 346,-94.08 346.84,-99.62"/>
</g>
<!-- Models -->
<g id="node10" class="node">
<title>Models</title>
<path fill="#ffe0b2" stroke="#37474f" d="M497,-352.26C497,-352.26 351,-352.26 351,-352.26 345,-352.26 339,-346.26 339,-340.26 339,-340.26 339,-328.26 339,-328.26 339,-322.26 345,-316.26 351,-316.26 351,-316.26 497,-316.26 497,-316.26 503,-316.26 509,-322.26 509,-328.26 509,-328.26 509,-340.26 509,-340.26 509,-346.26 503,-352.26 497,-352.26"/>
<text text-anchor="middle" x="424" y="-331.46" font-family="Helvetica,sans-Serif" font-size="11.00">models/deeplabv3_resnet50.pth</text>
</g>
<!-- Segmenter&#45;&gt;Models -->
<g id="edge9" class="edge">
<title>Segmenter&#45;&gt;Models</title>
<path fill="none" stroke="#546e7a" stroke-width="1.4" stroke-dasharray="5,2" d="M230.5,-136.37C241.82,-145.62 254.38,-157.77 262.5,-171.26 276.47,-194.49 266.31,-205.8 278,-230.26 295.13,-266.11 299.02,-278.68 331,-302.26 336.17,-306.07 341.83,-309.46 347.72,-312.46"/>
<polygon fill="#546e7a" stroke="#546e7a" stroke-width="1.4" points="346.85,-315.15 355.28,-316.06 349.26,-310.09 346.85,-315.15"/>
<text text-anchor="middle" x="299.5" y="-297.06" font-family="Times,serif" font-size="14.00">weights</text>
</g>
<!-- NetMask&#45;&gt;Overlays -->
<g id="edge6" class="edge">
<title>NetMask&#45;&gt;Overlays</title>
<path fill="none" stroke="#546e7a" stroke-width="1.4" d="M243.22,-58.87C271.6,-63.04 311.25,-68.86 346.09,-73.97"/>
<polygon fill="#546e7a" stroke="#546e7a" stroke-width="1.4" points="346.05,-76.8 354.37,-75.19 346.86,-71.26 346.05,-76.8"/>
</g>
<!-- Overlays&#45;&gt;Panels -->
<g id="edge7" class="edge">
<title>Overlays&#45;&gt;Panels</title>
<path fill="none" stroke="#546e7a" stroke-width="1.4" d="M396.77,-67.05C343.73,-32.7 221.84,33.51 140,-21.26 87.09,-56.67 71.22,-136.65 66.49,-178.16"/>
<polygon fill="#546e7a" stroke="#546e7a" stroke-width="1.4" points="63.7,-177.92 65.66,-186.17 69.27,-178.5 63.7,-177.92"/>
</g>
<!-- Outputs -->
<g id="node9" class="node">
<title>Outputs</title>
<path fill="#ffe0b2" stroke="#37474f" d="M463.5,-222.26C463.5,-222.26 384.5,-222.26 384.5,-222.26 378.5,-222.26 372.5,-216.26 372.5,-210.26 372.5,-210.26 372.5,-198.26 372.5,-198.26 372.5,-192.26 378.5,-186.26 384.5,-186.26 384.5,-186.26 463.5,-186.26 463.5,-186.26 469.5,-186.26 475.5,-192.26 475.5,-198.26 475.5,-198.26 475.5,-210.26 475.5,-210.26 475.5,-216.26 469.5,-222.26 463.5,-222.26"/>
<text text-anchor="middle" x="424" y="-201.46" font-family="Helvetica,sans-Serif" font-size="11.00">outputs/annotated</text>
</g>
<!-- Overlays&#45;&gt;Outputs -->
<g id="edge8" class="edge">
<title>Overlays&#45;&gt;Outputs</title>
<path fill="none" stroke="#546e7a" stroke-width="1.4" d="M424,-103.39C424,-128.28 424,-153.17 424,-178.06"/>
<polygon fill="#546e7a" stroke="#546e7a" stroke-width="1.4" points="421.2,-178.14 424,-186.14 426.8,-178.14 421.2,-178.14"/>
</g>
<!-- Camera -->
<g id="node7" class="node">
<title>Camera</title>
<path fill="#ffe0b2" stroke="#37474f" d="M459.5,-287.26C459.5,-287.26 388.5,-287.26 388.5,-287.26 382.5,-287.26 376.5,-281.26 376.5,-275.26 376.5,-275.26 376.5,-263.26 376.5,-263.26 376.5,-257.26 382.5,-251.26 388.5,-251.26 388.5,-251.26 459.5,-251.26 459.5,-251.26 465.5,-251.26 471.5,-257.26 471.5,-263.26 471.5,-263.26 471.5,-275.26 471.5,-275.26 471.5,-281.26 465.5,-287.26 459.5,-287.26"/>
<text text-anchor="middle" x="424" y="-266.46" font-family="Helvetica,sans-Serif" font-size="11.00">Camera Frames</text>
</g>
<!-- Camera&#45;&gt;Segmenter -->
<g id="edge3" class="edge">
<title>Camera&#45;&gt;Segmenter</title>
<path fill="none" stroke="#546e7a" stroke-width="1.4" d="M376.32,-257.34C361.23,-252.38 344.83,-245.76 331,-237.26 294.98,-215.14 293.27,-200.26 262.5,-171.26 252.19,-161.55 240.73,-150.94 230.78,-141.79"/>
<polygon fill="#546e7a" stroke="#546e7a" stroke-width="1.4" points="232.58,-139.65 224.79,-136.31 228.79,-143.78 232.58,-139.65"/>
</g>
<!-- Images -->
<g id="node8" class="node">
<title>Images</title>
<path fill="#ffe0b2" stroke="#37474f" d="M476.5,-417.26C476.5,-417.26 371.5,-417.26 371.5,-417.26 365.5,-417.26 359.5,-411.26 359.5,-405.26 359.5,-405.26 359.5,-393.26 359.5,-393.26 359.5,-387.26 365.5,-381.26 371.5,-381.26 371.5,-381.26 476.5,-381.26 476.5,-381.26 482.5,-381.26 488.5,-387.26 488.5,-393.26 488.5,-393.26 488.5,-405.26 488.5,-405.26 488.5,-411.26 482.5,-417.26 476.5,-417.26"/>
<text text-anchor="middle" x="424" y="-396.46" font-family="Helvetica,sans-Serif" font-size="11.00">Loaded / Demo Images</text>
</g>
<!-- Images&#45;&gt;Segmenter -->
<g id="edge4" class="edge">
<title>Images&#45;&gt;Segmenter</title>
<path fill="none" stroke="#546e7a" stroke-width="1.4" d="M359.65,-381.19C328.24,-368.45 293.73,-347.73 278,-315.26 249.94,-257.33 291.46,-228.75 262.5,-171.26 256.79,-159.92 247.58,-149.8 238.18,-141.51"/>
<polygon fill="#546e7a" stroke="#546e7a" stroke-width="1.4" points="239.95,-139.33 232.02,-136.33 236.35,-143.62 239.95,-139.33"/>
</g>
</g>
</svg>
