<?xml version="1.0" encoding="UTF-8" standalone="no"?>
<!DOCTYPE svg PUBLIC "-//W3C//DTD SVG 1.1//EN"
 "http://www.w3.org/Graphics/SVG/1.1/DTD/svg11.dtd">
<!-- Generated by graphviz version 2.43.0 (0)
 -->
<!-- Title: gui_flow Pages: 1 -->
<svg width="704pt" height="286pt"
 viewBox="0.00 0.00 703.80 285.80" xmlns="http://www.w3.org/2000/svg" xmlns:xlink="http://www.w3.org/1999/xlink">
<g id="graph0" class="graph" transform="scale(1 1) rotate(0) translate(14.4 271.4)">
<title>gui_flow</title>
<text text-anchor="middle" x="337.5" y="-240.2" font-family="Helvetica,sans-Serif" font-size="16.00">GUI Flow</text>
<!-- Generate -->
<g id="node1" class="node">
<title>Generate</title>
<path fill="#e3f2fd" stroke="#37474f" d="M112,-231C112,-231 12,-231 12,-231 6,-231 0,-225 0,-219 0,-219 0,-207 0,-207 0,-201 6,-195 12,-195 12,-195 112,-195 112,-195 118,-195 124,-201 124,-207 124,-207 124,-219 124,-219 124,-225 118,-231 112,-231"/>
<text text-anchor="middle" x="62" y="-210.2" font-family="Helvetica,sans-Serif" font-size="11.00">Generate demo image</text>
</g>
<!-- Input -->
<g id="node6" class="node">
<title>Input</title>
<path fill="#fff3e0" stroke="#37474f" d="M218,-101C218,-101 172,-101 172,-101 166,-101 160,-95 160,-89 160,-89 160,-77 160,-77 160,-71 166,-65 172,-65 172,-65 218,-65 218,-65 224,-65 230,-71 230,-77 230,-77 230,-89 230,-89 230,-95 224,-101 218,-101"/>
<text text-anchor="middle" x="195" y="-80.2" font-family="Helvetica,sans-Serif" font-size="11.00">Input panel</text>
</g>
<!-- Generate&#45;&gt;Input -->
<g id="edge1" class="edge">
<title>Generate&#45;&gt;Input</title>
<path fill="none" stroke="#546e7a" stroke-width="1.4" d="M104.09,-194.85C111.11,-190.82 118.05,-186.19 124,-181 147.83,-160.23 167.93,-129.82 180.39,-108.39"/>
<polygon fill="#546e7a" stroke="#546e7a" stroke-width="1.4" points="182.95,-109.56 184.47,-101.22 178.08,-106.79 182.95,-109.56"/>
</g>
<!-- Load -->
<g id="node2" class="node">
<title>Load</title>
<path fill="#e3f2fd" stroke="#37474f" d="M86.5,-166C86.5,-166 37.5,-166 37.5,-166 31.5,-166 25.5,-160 25.5,-154 25.5,-154 25.5,-142 25.5,-142 25.5,-136 31.5,-130 37.5,-130 37.5,-130 86.5,-130 86.5,-130 92.5,-130 98.5,-136 98.5,-142 98.5,-142 98.5,-154 98.5,-154 98.5,-160 92.5,-166 86.5,-166"/>
<text text-anchor="middle" x="62" y="-145.2" font-family="Helvetica,sans-Serif" font-size="11.00">Load image</text>
</g>
<!-- Load&#45;&gt;Input -->
<g id="edge2" class="edge">
<title>Load&#45;&gt;Input</title>
<path fill="none" stroke="#546e7a" stroke-width="1.4" d="M98.8,-130.24C115.37,-122.02 135.16,-112.2 152.39,-103.65"/>
<polygon fill="#546e7a" stroke="#546e7a" stroke-width="1.4" points="153.68,-106.13 159.6,-100.07 151.19,-101.12 153.68,-106.13"/>
</g>
<!-- Segment -->
<g id="node3" class="node">
<title>Segment</title>
<path fill="#c8e6c9" stroke="#37474f" d="M361,-100C361,-100 278,-100 278,-100 272,-100 266,-94 266,-88 266,-88 266,-76 266,-76 266,-70 272,-64 278,-64 278,-64 361,-64 361,-64 367,-64 373,-70 373,-76 373,-76 373,-88 373,-88 373,-94 367,-100 361,-100"/>
<text text-anchor="middle" x="319.5" y="-79.2" font-family="Helvetica,sans-Serif" font-size="11.00">Run Segmentation</text>
</g>
<!-- Output -->
<g id="node7" class="node">
<title>Output</title>
<path fill="#fff3e0" stroke="#37474f" d="M513,-68C513,-68 421,-68 421,-68 415,-68 409,-62 409,-56 409,-56 409,-44 409,-44 409,-38 415,-32 421,-32 421,-32 513,-32 513,-32 519,-32 525,-38 525,-44 525,-44 525,-56 525,-56 525,-62 519,-68 513,-68"/>
<text text-anchor="middle" x="467" y="-47.2" font-family="Helvetica,sans-Serif" font-size="11.00">Segmentation output</text>
</g>
<!-- Segment&#45;&gt;Output -->
<g id="edge4" class="edge">
<title>Segment&#45;&gt;Output</title>
<path fill="none" stroke="#546e7a" stroke-width="1.4" d="M373.03,-70.45C381.97,-68.48 391.35,-66.42 400.58,-64.39"/>
<polygon fill="#546e7a" stroke="#546e7a" stroke-width="1.4" points="401.41,-67.07 408.63,-62.62 400.21,-61.6 401.41,-67.07"/>
</g>
<!-- LiveOn -->
<g id="node4" class="node">
<title>LiveOn</title>
<path fill="#ffe0b2" stroke="#37474f" d="M99,-36C99,-36 25,-36 25,-36 19,-36 13,-30 13,-24 13,-24 13,-12 13,-12 13,-6 19,0 25,0 25,0 99,0 99,0 105,0 111,-6 111,-12 111,-12 111,-24 111,-24 111,-30 105,-36 99,-36"/>
<text text-anchor="middle" x="62" y="-15.2" font-family="Helvetica,sans-Serif" font-size="11.00">Live Camera ON</text>
</g>
<!-- LiveOn&#45;&gt;Input -->
<g id="edge5" class="edge">
<title>LiveOn&#45;&gt;Input</title>
<path fill="none" stroke="#546e7a" stroke-width="1.4" d="M99.49,-36.11C115.9,-44.25 135.36,-53.9 152.34,-62.33"/>
<polygon fill="#546e7a" stroke="#546e7a" stroke-width="1.4" points="151.54,-65.06 159.95,-66.11 154.03,-60.04 151.54,-65.06"/>
</g>
<!-- LiveOn&#45;&gt;Output -->
<g id="edge6" class="edge">
<title>LiveOn&#45;&gt;Output</title>
<path fill="none" stroke="#546e7a" stroke-width="1.4" d="M111.21,-21.83C183.42,-27.56 319.82,-38.39 400.84,-44.83"/>
<polygon fill="#546e7a" stroke="#546e7a" stroke-width="1.4" points="400.79,-47.63 408.98,-45.47 401.23,-42.05 400.79,-47.63"/>
</g>
<!-- LiveOff -->
<g id="node5" class="node">
<title>LiveOff</title>
<path fill="#ffe0b2" stroke="#37474f" d="M90.5,-101C90.5,-101 33.5,-101 33.5,-101 27.5,-101 21.5,-95 21.5,-89 21.5,-89 21.5,-77 21.5,-77 21.5,-71 27.5,-65 33.5,-65 33.5,-65 90.5,-65 90.5,-65 96.5,-65 102.5,-71 102.5,-77 102.5,-77 102.5,-89 102.5,-89 102.5,-95 96.5,-101 90.5,-101"/>
<text text-anchor="middle" x="62" y="-80.2" font-family="Helvetica,sans-Serif" font-size="11.00">Stop Camera</text>
</g>
<!-- LiveOff&#45;&gt;Input -->
<g id="edge7" class="edge">
<title>LiveOff&#45;&gt;Input</title>
<path fill="none" stroke="#546e7a" stroke-width="1.4" d="M102.66,-83C118.18,-83 136,-83 151.76,-83"/>
<polygon fill="#546e7a" stroke="#546e7a" stroke-width="1.4" points="151.79,-85.8 159.79,-83 151.79,-80.2 151.79,-85.8"/>
</g>
<!-- Input&#45;&gt;Segment -->
<g id="edge3" class="edge">
<title>Input&#45;&gt;Segment</title>
<path fill="none" stroke="#546e7a" stroke-width="1.4" d="M230.12,-82.72C238.66,-82.65 248.09,-82.57 257.5,-82.5"/>
<polygon fill="#546e7a" stroke="#546e7a" stroke-width="1.4" points="257.78,-85.3 265.75,-82.43 257.73,-79.7 257.78,-85.3"/>
</g>
<!-- Report -->
<g id="node8" class="node">
<title>Report</title>
<path fill="#f3e5f5" stroke="#37474f" d="M663,-68C663,-68 573,-68 573,-68 567,-68 561,-62 561,-56 561,-56 561,-44 561,-44 561,-38 567,-32 573,-32 573,-32 663,-32 663,-32 669,-32 675,-38 675,-44 675,-44 675,-56 675,-56 675,-62 669,-68 663,-68"/>
<text text-anchor="middle" x="618" y="-47.2" font-family="Helvetica,sans-Serif" font-size="11.00">Debris report + FPS</text>
</g>
<!-- Output&#45;&gt;Report -->
<g id="edge8" class="edge">
<title>Output&#45;&gt;Report</title>
<path fill="none" stroke="#546e7a" stroke-width="1.4" d="M525.18,-50C534.1,-50 543.38,-50 552.45,-50"/>
<polygon fill="#546e7a" stroke="#546e7a" stroke-width="1.4" points="552.71,-52.8 560.71,-50 552.71,-47.2 552.71,-52.8"/>
</g>
</g>
</svg>
