<?xml version="1.0" encoding="UTF-8" standalone="no"?>
<!DOCTYPE svg PUBLIC "-//W3C//DTD SVG 1.1//EN"
 "http://www.w3.org/Graphics/SVG/1.1/DTD/svg11.dtd">
<!-- Generated by graphviz version 2.43.0 (0)
 -->
<!-- Title: pipeline_segmentation Pages: 1 -->
<svg width="828pt" height="156pt"
 viewBox="0.00 0.00 827.80 155.80" xmlns="http://www.w3.org/2000/svg" xmlns:xlink="http://www.w3.org/1999/xlink">
<g id="graph0" class="graph" transform="scale(1 1) rotate(0) translate(14.4 141.4)">
<title>pipeline_segmentation</title>
<text text-anchor="middle" x="399.5" y="-110.2" font-family="Helvetica,sans-Serif" font-size="16.00">Segmentation Pipeline</text>
<!-- Input -->
<g id="node1" class="node">
<title>Input</title>
<path fill="#e3f2fd" stroke="#37474f" d="M117,-68C117,-68 12,-68 12,-68 6,-68 0,-62 0,-56 0,-56 0,-44 0,-44 0,-38 6,-32 12,-32 12,-32 117,-32 117,-32 123,-32 129,-38 129,-44 129,-44 129,-56 129,-56 129,-62 123,-68 117,-68"/>
<text text-anchor="middle" x="64.5" y="-47.2" font-family="Helvetica,sans-Serif" font-size="11.00">Image / Camera Frame</text>
</g>
<!-- Pre -->
<g id="node2" class="node">
<title>Pre</title>
<path fill="#e8f5e9" stroke="#37474f" d="M265,-100C265,-100 177,-100 177,-100 171,-100 165,-94 165,-88 165,-88 165,-76 165,-76 165,-70 171,-64 177,-64 177,-64 265,-64 265,-64 271,-64 277,-70 277,-76 277,-76 277,-88 277,-88 277,-94 271,-100 265,-100"/>
<text text-anchor="middle" x="221" y="-85.2" font-family="Helvetica,sans-Serif" font-size="11.00">Preprocess</text>
<text text-anchor="middle" x="221" y="-73.2" font-family="Helvetica,sans-Serif" font-size="11.00">(resize + normalize)</text>
</g>
<!-- Input&#45;&gt;Pre -->
<g id="edge1" class="edge">
<title>Input&#45;&gt;Pre</title>
<path fill="none" stroke="#546e7a" stroke-width="1.4" d="M129.23,-63.2C138.36,-65.09 147.75,-67.04 156.87,-68.92"/>
<polygon fill="#546e7a" stroke="#546e7a" stroke-width="1.4" points="156.4,-71.69 164.8,-70.57 157.53,-66.2 156.4,-71.69"/>
</g>
<!-- Net -->
<g id="node5" class="node">
<title>Net</title>
<path fill="#ffe0b2" stroke="#37474f" d="M379,-36C379,-36 325,-36 325,-36 319,-36 313,-30 313,-24 313,-24 313,-12 313,-12 313,-6 319,0 325,0 325,0 379,0 379,0 385,0 391,-6 391,-12 391,-12 391,-24 391,-24 391,-30 385,-36 379,-36"/>
<text text-anchor="middle" x="352" y="-21.2" font-family="Helvetica,sans-Serif" font-size="11.00">Net Mask</text>
<text text-anchor="middle" x="352" y="-9.2" font-family="Helvetica,sans-Serif" font-size="11.00">(HSV green)</text>
</g>
<!-- Input&#45;&gt;Net -->
<g id="edge6" class="edge">
<title>Input&#45;&gt;Net</title>
<path fill="none" stroke="#546e7a" stroke-width="1.4" d="M129.22,-42.86C182.5,-36.89 257.24,-28.51 304.9,-23.17"/>
<polygon fill="#546e7a" stroke="#546e7a" stroke-width="1.4" points="305.25,-25.95 312.89,-22.27 304.62,-20.38 305.25,-25.95"/>
</g>
<!-- Model -->
<g id="node3" class="node">
<title>Model</title>
<path fill="#c8e6c9" stroke="#37474f" d="M377,-101C377,-101 327,-101 327,-101 321,-101 315,-95 315,-89 315,-89 315,-77 315,-77 315,-71 321,-65 327,-65 327,-65 377,-65 377,-65 383,-65 389,-71 389,-77 389,-77 389,-89 389,-89 389,-95 383,-101 377,-101"/>
<text text-anchor="middle" x="352" y="-86.2" font-family="Helvetica,sans-Serif" font-size="11.00">DeepLabV3</text>
<text text-anchor="middle" x="352" y="-74.2" font-family="Helvetica,sans-Serif" font-size="11.00">(PyTorch)</text>
</g>
<!-- Pre&#45;&gt;Model -->
<g id="edge2" class="edge">
<title>Pre&#45;&gt;Model</title>
<path fill="none" stroke="#546e7a" stroke-width="1.4" d="M277.08,-82.43C286.93,-82.5 297.08,-82.58 306.59,-82.66"/>
<polygon fill="#546e7a" stroke="#546e7a" stroke-width="1.4" points="306.73,-85.46 314.75,-82.72 306.77,-79.86 306.73,-85.46"/>
</g>
<!-- Mask -->
<g id="node4" class="node">
<title>Mask</title>
<path fill="#fff3e0" stroke="#37474f" d="M487,-100C487,-100 439,-100 439,-100 433,-100 427,-94 427,-88 427,-88 427,-76 427,-76 427,-70 433,-64 439,-64 439,-64 487,-64 487,-64 493,-64 499,-70 499,-76 499,-76 499,-88 499,-88 499,-94 493,-100 487,-100"/>
<text text-anchor="middle" x="463" y="-79.2" font-family="Helvetica,sans-Serif" font-size="11.00">Class Mask</text>
</g>
<!-- Model&#45;&gt;Mask -->
<g id="edge3" class="edge">
<title>Model&#45;&gt;Mask</title>
<path fill="none" stroke="#546e7a" stroke-width="1.4" d="M389.3,-82.67C398.78,-82.58 409.09,-82.49 418.89,-82.4"/>
<polygon fill="#546e7a" stroke="#546e7a" stroke-width="1.4" points="419,-85.19 426.97,-82.32 418.95,-79.59 419,-85.19"/>
</g>
<!-- Overlays -->
<g id="node6" class="node">
<title>Overlays</title>
<path fill="#f3e5f5" stroke="#37474f" d="M662,-68C662,-68 547,-68 547,-68 541,-68 535,-62 535,-56 535,-56 535,-44 535,-44 535,-38 541,-32 547,-32 547,-32 662,-32 662,-32 668,-32 674,-38 674,-44 674,-44 674,-56 674,-56 674,-62 668,-68 662,-68"/>
<text text-anchor="middle" x="604.5" y="-53.2" font-family="Helvetica,sans-Serif" font-size="11.00">Overlay</text>
<text text-anchor="middle" x="604.5" y="-41.2" font-family="Helvetica,sans-Serif" font-size="11.00">(seg + net + debris + fire)</text>
</g>
<!-- Mask&#45;&gt;Overlays -->
<g id="edge4" class="edge">
<title>Mask&#45;&gt;Overlays</title>
<path fill="none" stroke="#546e7a" stroke-width="1.4" d="M499.2,-73.93C507.8,-71.95 517.33,-69.77 527.04,-67.54"/>
<polygon fill="#546e7a" stroke="#546e7a" stroke-width="1.4" points="527.68,-70.26 534.85,-65.75 526.43,-64.81 527.68,-70.26"/>
</g>
<!-- Net&#45;&gt;Overlays -->
<g id="edge7" class="edge">
<title>Net&#45;&gt;Overlays</title>
<path fill="none" stroke="#546e7a" stroke-width="1.4" d="M391.05,-22.86C426.94,-27.45 481.8,-34.45 526.79,-40.2"/>
<polygon fill="#546e7a" stroke="#546e7a" stroke-width="1.4" points="526.49,-42.98 534.78,-41.22 527.19,-37.43 526.49,-42.98"/>
</g>
<!-- Output -->
<g id="node7" class="node">
<title>Output</title>
<path fill="#f3e5f5" stroke="#37474f" d="M787,-68C787,-68 722,-68 722,-68 716,-68 710,-62 710,-56 710,-56 710,-44 710,-44 710,-38 716,-32 722,-32 722,-32 787,-32 787,-32 793,-32 799,-38 799,-44 799,-44 799,-56 799,-56 799,-62 793,-68 787,-68"/>
<text text-anchor="middle" x="754.5" y="-47.2" font-family="Helvetica,sans-Serif" font-size="11.00">Display + Save</text>
</g>
<!-- Overlays&#45;&gt;Output -->
<g id="edge5" class="edge">
<title>Overlays&#45;&gt;Output</title>
<path fill="none" stroke="#546e7a" stroke-width="1.4" d="M674.3,-50C683.55,-50 692.9,-50 701.79,-50"/>
<polygon fill="#546e7a" stroke="#546e7a" stroke-width="1.4" points="701.8,-52.8 709.8,-50 701.8,-47.2 701.8,-52.8"/>
</g>
</g>
</svg>
